<mxfile type="github" version="13.7.1" host="app.diagrams.net" modified="2020-09-16T14:41:44.150Z" agent="5.0 (Windows NT 10.0; Win64; x64) AppleWebKit/537.36 (KHTML, like Gecko) Chrome/70.0.3538.102 Safari/537.36 Edge/18.18362" etag="RduEju9kAcPgW70r7Wjn">
  <diagram id="C5RBs43oDa-KdzZeNtuy" name="Page-1">
    <mxGraphModel page="1" grid="1" shadow="0" math="0" pageHeight="1169" pageWidth="827" pageScale="1" fold="1" arrows="1" connect="1" tooltips="1" guides="1" gridSize="10" dy="570" dx="754">
      <root>
        <mxCell id="WIyWlLk6GJQsqaUBKTNV-0" />
        <mxCell id="WIyWlLk6GJQsqaUBKTNV-1" parent="WIyWlLk6GJQsqaUBKTNV-0" />
        <mxCell id="WIyWlLk6GJQsqaUBKTNV-3" value="init()" parent="WIyWlLk6GJQsqaUBKTNV-1" style="rounded=1;whiteSpace=wrap;html=1;fontSize=12;glass=0;strokeWidth=1;shadow=0;" vertex="1">
          <mxGeometry as="geometry" height="40" width="120" y="10" x="160" />
        </mxCell>
        <mxCell id="WIyWlLk6GJQsqaUBKTNV-4" value="Yes" parent="WIyWlLk6GJQsqaUBKTNV-1" edge="1" target="WIyWlLk6GJQsqaUBKTNV-10" style="rounded=0;html=1;jettySize=auto;orthogonalLoop=1;fontSize=11;endArrow=block;endFill=0;endSize=8;strokeWidth=1;shadow=0;labelBackgroundColor=none;edgeStyle=orthogonalEdgeStyle;">
          <mxGeometry as="geometry" relative="1" y="20">
            <mxPoint as="offset" />
            <mxPoint as="sourcePoint" y="250" x="220" />
          </mxGeometry>
        </mxCell>
        <mxCell id="WIyWlLk6GJQsqaUBKTNV-7" value="Plug in lamp" parent="WIyWlLk6GJQsqaUBKTNV-1" style="rounded=1;whiteSpace=wrap;html=1;fontSize=12;glass=0;strokeWidth=1;shadow=0;" vertex="1">
          <mxGeometry as="geometry" height="40" width="120" y="190" x="320" />
        </mxCell>
        <mxCell id="WIyWlLk6GJQsqaUBKTNV-8" value="No" parent="WIyWlLk6GJQsqaUBKTNV-1" edge="1" target="WIyWlLk6GJQsqaUBKTNV-11" source="WIyWlLk6GJQsqaUBKTNV-10" style="rounded=0;html=1;jettySize=auto;orthogonalLoop=1;fontSize=11;endArrow=block;endFill=0;endSize=8;strokeWidth=1;shadow=0;labelBackgroundColor=none;edgeStyle=orthogonalEdgeStyle;">
          <mxGeometry as="geometry" relative="1" y="20" x="0.3333">
            <mxPoint as="offset" />
          </mxGeometry>
        </mxCell>
        <mxCell id="WIyWlLk6GJQsqaUBKTNV-9" value="Yes" parent="WIyWlLk6GJQsqaUBKTNV-1" edge="1" target="WIyWlLk6GJQsqaUBKTNV-12" source="WIyWlLk6GJQsqaUBKTNV-10" style="edgeStyle=orthogonalEdgeStyle;rounded=0;html=1;jettySize=auto;orthogonalLoop=1;fontSize=11;endArrow=block;endFill=0;endSize=8;strokeWidth=1;shadow=0;labelBackgroundColor=none;">
          <mxGeometry as="geometry" relative="1" y="10">
            <mxPoint as="offset" />
          </mxGeometry>
        </mxCell>
        <mxCell id="WIyWlLk6GJQsqaUBKTNV-10" value="Bulb&lt;br&gt;burned out?" parent="WIyWlLk6GJQsqaUBKTNV-1" style="rhombus;whiteSpace=wrap;html=1;shadow=0;fontFamily=Helvetica;fontSize=12;align=center;strokeWidth=1;spacing=6;spacingTop=-4;" vertex="1">
          <mxGeometry as="geometry" height="80" width="100" y="290" x="170" />
        </mxCell>
        <mxCell id="WIyWlLk6GJQsqaUBKTNV-11" value="Repair Lamp" parent="WIyWlLk6GJQsqaUBKTNV-1" style="rounded=1;whiteSpace=wrap;html=1;fontSize=12;glass=0;strokeWidth=1;shadow=0;" vertex="1">
          <mxGeometry as="geometry" height="40" width="120" y="430" x="160" />
        </mxCell>
        <mxCell id="WIyWlLk6GJQsqaUBKTNV-12" value="Replace Bulb" parent="WIyWlLk6GJQsqaUBKTNV-1" style="rounded=1;whiteSpace=wrap;html=1;fontSize=12;glass=0;strokeWidth=1;shadow=0;" vertex="1">
          <mxGeometry as="geometry" height="40" width="120" y="310" x="320" />
        </mxCell>
        <mxCell id="IVyZXZVqzzPxGB_9fByX-0" value="&lt;font&gt;用户输入进程数目&lt;/font&gt;" parent="WIyWlLk6GJQsqaUBKTNV-1" style="rounded=1;whiteSpace=wrap;html=1;" vertex="1">
          <mxGeometry as="geometry" height="60" width="120" y="80" x="160" />
        </mxCell>
        <mxCell id="IVyZXZVqzzPxGB_9fByX-1" value="" parent="WIyWlLk6GJQsqaUBKTNV-1" edge="1" style="endArrow=none;html=1;">
          <mxGeometry as="geometry" relative="1" height="50" width="50">
            <mxPoint as="sourcePoint" y="80" x="220" />
            <mxPoint as="targetPoint" y="50" x="220" />
          </mxGeometry>
        </mxCell>
        <mxCell id="IVyZXZVqzzPxGB_9fByX-2" value="的" parent="WIyWlLk6GJQsqaUBKTNV-1" style="rounded=1;whiteSpace=wrap;html=1;" vertex="1">
          <mxGeometry as="geometry" height="60" width="120" y="170" x="160" />
        </mxCell>
        <mxCell id="IVyZXZVqzzPxGB_9fByX-5" value="" parent="WIyWlLk6GJQsqaUBKTNV-1" edge="1" style="endArrow=none;html=1;">
          <mxGeometry as="geometry" relative="1" height="50" width="50">
            <mxPoint as="sourcePoint" y="170" x="219.6" />
            <mxPoint as="targetPoint" y="140" x="219.6" />
          </mxGeometry>
        </mxCell>
      </root>
    </mxGraphModel>
  </diagram>
</mxfile>
